<svg width="128" height="128" viewBox="0 0 128 128" fill="none" xmlns="http://www.w3.org/2000/svg">
<g clip-path="url(#clip0_15_28)">
<rect width="128" height="128" rx="20" fill="#FFD600"/>
<path d="M7.08493 74.0223C7.09257 74.0131 7.08964 74.0158 7.07344 74.0312C7.02069 74.0812 6.82726 74.2645 6.40001 74.5998C5.89666 74.9947 5.22257 75.4822 4.39136 76.0511C2.73246 77.1864 0.588083 78.5502 -1.77222 79.9971C-6.48499 82.8861 -11.9123 86.0175 -15.7116 88.1546C-17.3492 89.0757 -18.4559 90.7056 -18.7134 92.5607L-25.6576 142.585C-26.1463 146.105 -23.4848 149.276 -19.9329 149.406L49.8792 151.948C52.3302 152.037 54.5887 150.626 55.5827 148.384L62.7416 132.235C63.0419 131.558 63.2121 130.843 63.251 130.107C63.7346 120.961 69.3755 97.0112 88.6851 75.0921C101.656 60.3682 104.174 49.339 100.43 40.7293C98.6644 36.669 95.6977 33.6923 92.949 31.48C91.5647 30.3658 90.1777 29.4006 88.9658 28.5781C88.6644 28.3735 88.3802 28.1819 88.1115 28.0007C87.2471 27.4179 86.5422 26.9426 85.935 26.4885C84.1751 25.1724 82.1012 24.93 80.4053 25.0155C78.6718 25.1029 76.8381 25.5543 75.0498 26.1618C71.4612 27.3811 67.3275 29.4852 63.2072 31.8924C54.9406 36.7219 46.0469 43.1771 40.3598 47.6579C35.3449 51.4325 27.7108 57.2378 21.0565 62.4241C17.7237 65.0217 14.6188 67.4779 12.2065 69.4515C11.0022 70.4368 9.94939 71.319 9.11858 72.0476C8.36497 72.7086 7.57946 73.4267 7.08493 74.0223Z" fill="#498EA7" stroke="#498EA7" stroke-width="8"/>
<ellipse cx="60.5134" cy="41.1755" rx="9" ry="4.23168" transform="rotate(-42.1278 60.5134 41.1755)" fill="white"/>
<ellipse cx="88.5134" cy="64.1755" rx="9" ry="4.23168" transform="rotate(-42.1278 88.5134 64.1755)" fill="white"/>
<ellipse cx="67.8142" cy="60.5843" rx="9" ry="4.23168" transform="rotate(38.8519 67.8142 60.5843)" fill="white"/>
<ellipse cx="60.5134" cy="41.1755" rx="9" ry="4.23168" transform="rotate(-42.1278 60.5134 41.1755)" fill="white"/>
<ellipse cx="59.9133" cy="40.81" rx="3.46324" ry="2.00484" transform="rotate(-42.1278 59.9133 40.81)" fill="#498EA7"/>
<ellipse cx="88.9133" cy="64.81" rx="3.46324" ry="2.00484" transform="rotate(-42.1278 88.9133 64.81)" fill="#498EA7"/>
<line x1="58.6008" y1="53.2344" x2="77.0242" y2="67.985" stroke="#498EA7"/>
<path d="M93.5 29.5C93.3333 26 95.2 18.3 104 15.5C102.5 19.3333 98.3 27.5 93.5 29.5Z" fill="#498EA7"/>
<path d="M93.0104 29C92.836 27.75 94.7897 25 104 24C102.43 25.369 98.0342 28.2857 93.0104 29Z" fill="#498EA7"/>
<path d="M15.5 47.5L-5 89.5L-3.5 106L30.5 79L15.5 47.5Z" fill="#D9D9D9"/>
<path d="M64.5 102L14.3545 147.186L1.08325 138.85L51 84L64.5 102Z" fill="#D9D9D9"/>
<path d="M30.5 79L-9 111.5L-6.5 132L7 133.5L50.5 84.5L30.5 79Z" fill="#797979" stroke="#797979"/>
<path d="M7.82382 81.2559L-2.86275 74.2341C-3.33267 73.9253 -3.65586 73.4198 -3.7318 72.8627C-5.58183 59.2899 2.5727 62.5195 7.43481 66.2288C7.78876 66.4988 8.02873 66.8883 8.12938 67.3219L10.8703 79.1323C11.2784 80.8906 9.33234 82.2471 7.82382 81.2559Z" fill="#5FA3BC" stroke="white"/>
<path d="M32.9649 152L64.6696 117.32L81 102.404L63.4737 101L7 146.853L32.9649 152Z" fill="#797979" stroke="#797979"/>
<path d="M57.215 116.768L67.5761 121.113C68.1576 121.356 68.6007 121.863 68.7142 122.484C70.1829 130.509 62.4632 128.626 57.6974 126.347C57.2443 126.13 56.9047 125.738 56.7331 125.266L54.562 119.295C53.966 117.657 55.6068 116.093 57.215 116.768Z" fill="#5FA3BC" stroke="white"/>
</g>
<rect x="1.5" y="1.5" width="125" height="125" rx="18.5" stroke="white" stroke-width="3"/>
<defs>
<clipPath id="clip0_15_28">
<rect width="128" height="128" rx="20" fill="white"/>
</clipPath>
</defs>
</svg>
